# File created by Blade
# Date/Time:  Tue Jan 27 20:08:00 2015
#---------------------------------------------------------
:version 1.10
:name HOM
:units
  mass 1.0
  length 1.000000
  angle deg
:documentation
     Acclaim Skeleton File
:root
   axis xyz
   order TX TY TZ RX RY RZ
   position 0.000000 0.000000 0.000000
   orientation 0 0 0
:bonedata
   begin
      id 1
      name Spine_dum
      direction 0.000000 1.000000 0.000000
      length 6.116652
      axis 0.0 0.0 0.0 xyz
   end
   begin
      id 2
      name LeftUpLeg_dum
      direction 1.000000 0.000000 0.000000
      length 4.711765
      axis 0.0 0.0 0.0 xyz
   end
   begin
      id 3
      name RightUpLeg_dum
      direction -1.000000 0.000000 0.000000
      length 4.711765
      axis 0.0 0.0 0.0 xyz
   end
   begin
      id 4
      name Spine
      direction 0.000000 1.000000 0.000000
      length 0.000000
      axis 0.0 0.0 0.0 xyz
      dof rx ry rz
   end
   begin
      id 5
      name Spine_dum1
      direction 0.000000 1.000000 0.000000
      length 15.225563
      axis 0.0 0.0 0.0 xyz
   end
   begin
      id 6
      name Spine_dum2
      direction 0.000000 1.000000 0.000000
      length 8.977654
      axis 0.0 0.0 0.0 xyz
   end
   begin
      id 7
      name Spine_dum3
      direction 0.000000 1.000000 0.000000
      length 8.977654
      axis 0.0 0.0 0.0 xyz
   end
   begin
      id 8
      name Head
      direction 0.000000 1.000000 0.000000
      length 4.527550
      axis 0.0 0.0 0.0 xyz
      dof rx ry rz
   end
   begin
      id 9
      name LeftShoulder
      direction 1.000000 0.000000 0.000000
      length 7.110130
      axis 0.0 0.0 -90.0 xyz
      dof rx ry rz
   end
   begin
      id 10
      name LeftArm
      direction 1.000000 0.000000 0.000000
      length 10.398341
      axis 0.0 0.0 -90.0 xyz
      dof rx ry rz
   end
   begin
      id 11
      name LeftForeArm
      direction 1.000000 0.000000 0.000000
      length 8.888997
      axis 0.0 0.0 -90.0 xyz
      dof ry rz rx
   end
   begin
      id 12
      name LeftHand
      direction 0.000000 0.000000 0.000000
      length 0.000000
      axis 0.0 0.0 -90.0 xyz
      dof rx ry rz
   end
   begin
      id 13
      name LeftHand_dum1
      direction 0.000000 0.000000 0.000000
      length 0.000000
      axis 0.0 0.0 -90.0 xyz
   end
   begin
      id 14
      name LeftHand_dum2
      direction 1.000000 0.000000 0.000000
      length 3.937000
      axis 0.0 0.0 -90.0 xyz
   end
   begin
      id 15
      name LeftHandThumb1
      direction 0.000000 0.000000 1.000000
      length 3.937000
      axis 0.0 0.0 -90.0 xyz
      dof rx rz ry
   end
   begin
      id 16
      name RightShoulder
      direction -1.000000 0.000000 0.000000
      length 7.110130
      axis 0.0 0.0 90.0 xyz
      dof rx ry rz
   end
   begin
      id 17
      name RightArm
      direction -1.000000 0.000000 0.000000
      length 10.398341
      axis 0.0 0.0 90.0 xyz
      dof rx ry rz
   end
   begin
      id 18
      name RightForeArm
      direction -1.000000 0.000000 0.000000
      length 8.888997
      axis 0.0 0.0 90.0 xyz
      dof ry rz rx
   end
   begin
      id 19
      name RightHand
      direction 0.000000 0.000000 0.000000
      length 0.000000
      axis 0.0 0.0 90.0 xyz
      dof rx ry rz
   end
   begin
      id 20
      name RightHand_dum1
      direction 0.000000 0.000000 0.000000
      length 0.000000
      axis 0.0 0.0 90.0 xyz
   end
   begin
      id 21
      name RightHand_dum2
      direction -1.000000 0.000000 0.000000
      length 3.937000
      axis 0.0 0.0 90.0 xyz
   end
   begin
      id 22
      name RightHandThumb1
      direction 0.000000 0.000000 1.000000
      length 3.937000
      axis 0.0 0.0 90.0 xyz
      dof rx rz ry
   end
   begin
      id 23
      name LeftUpLeg
      direction 0.000000 -1.000000 0.000000
      length 15.510451
      axis 0.0 0.0 0.0 xyz
      dof rx ry rz
   end
   begin
      id 24
      name LeftLeg
      direction 0.000000 -1.000000 0.000000
      length 14.858061
      axis 0.0 0.0 0.0 xyz
      dof rx ry rz
   end
   begin
      id 25
      name LeftFoot
      direction 0.000000 -0.258819 0.965926
      length 5.128852
      axis 15.0 0.0 0.0 xyz
      dof rx ry rz
   end
   begin
      id 26
      name LeftToeBase
      direction 0.000000 0.000000 1.000000
      length 2.952750
      axis 0.0 0.0 0.0 xyz
      dof rx ry rz
   end
   begin
      id 27
      name RightUpLeg
      direction 0.000000 -1.000000 0.000000
      length 15.510451
      axis 0.0 0.0 0.0 xyz
      dof rx ry rz
   end
   begin
      id 28
      name RightLeg
      direction 0.000000 -1.000000 0.000000
      length 14.858061
      axis 0.0 0.0 0.0 xyz
      dof rx ry rz
   end
   begin
      id 29
      name RightFoot
      direction 0.000000 -0.258819 0.965926
      length 5.128852
      axis 15.0 0.0 0.0 xyz
      dof rx ry rz
   end
   begin
      id 30
      name RightToeBase
      direction 0.000000 0.000000 1.000000
      length 2.952750
      axis 0.0 0.0 0.0 xyz
      dof rx ry rz
   end
:hierarchy
   begin
      root Spine_dum LeftUpLeg_dum RightUpLeg_dum
      Spine_dum Spine
      LeftUpLeg_dum LeftUpLeg
      RightUpLeg_dum RightUpLeg
      Spine Spine_dum1 Spine_dum2 Spine_dum3
      Spine_dum1 Head
      Spine_dum2 LeftShoulder
      Spine_dum3 RightShoulder
      LeftShoulder LeftArm
      LeftArm LeftForeArm
      LeftForeArm LeftHand
      LeftHand LeftHand_dum1 LeftHand_dum2
      LeftHand_dum1 LeftHandThumb1
      RightShoulder RightArm
      RightArm RightForeArm
      RightForeArm RightHand
      RightHand RightHand_dum1 RightHand_dum2
      RightHand_dum1 RightHandThumb1
      LeftUpLeg LeftLeg
      LeftLeg LeftFoot
      LeftFoot LeftToeBase
      RightUpLeg RightLeg
      RightLeg RightFoot
      RightFoot RightToeBase
   end

# File created by Blade
# Date/Time:  Tue Jan 27 20:07:51 2015
# Frame Rate: 120.000 fps
#------------------------------------------------------
:FULLY-SPECIFIED
:DEGREES
1
root 3.710519 32.287772 -4.803059 -3.380610 10.025181 1.959491
Spine 4.370866 4.778927 -0.314344
Head -0.766580 -9.240839 1.302704
LeftShoulder -15.077144 1.490203 29.635945
LeftArm -3.390014 -1.799304 -91.123271
LeftForeArm -7.237935 -0.000000 122.197046
LeftHand 7.801186 -0.000000 19.904230
LeftHandThumb1 -26.253704 0.000000 33.147579
RightShoulder -19.053856 -17.761003 -24.592669
RightArm 17.904015 -35.388155 89.736799
RightForeArm -14.742044 -0.000000 27.601543
RightHand 15.771790 -0.000000 3.956067
RightHandThumb1 -24.326973 -0.000000 -32.862282
LeftUpLeg 4.275336 -1.644279 -5.407013
LeftLeg 6.052026 -0.000000 -0.000000
LeftFoot -18.312985 14.279255 -22.362355
LeftToeBase 17.228038 -0.000000 -0.000000
RightUpLeg 3.799321 -12.485187 2.818371
RightLeg 8.145909 -0.000000 -0.000000
RightFoot -18.883760 -18.060289 16.575466
RightToeBase 10.531136 -0.000000 -0.000000
2
root 3.750869 32.285123 -4.804021 -3.424558 10.224167 1.995441
Spine 4.393519 4.729428 -0.363219
Head -0.512071 -9.353492 1.300588
LeftShoulder -15.099563 1.723187 29.592896
LeftArm -3.277081 -2.109328 -91.037571
LeftForeArm -7.438134 -0.000000 122.178252
LeftHand 7.864916 0.000000 19.490210
LeftHandThumb1 -26.253704 0.000000 33.147579
RightShoulder -19.079468 -17.913269 -24.527156
RightArm 18.083359 -35.434285 89.691390
RightForeArm -14.616202 -0.000000 27.269008
RightHand 15.667100 -0.000000 3.962593
RightHandThumb1 -24.326973 -0.000000 -32.862282
LeftUpLeg 4.448477 -1.683701 -5.500840
LeftLeg 5.804222 -0.000000 -0.000000
LeftFoot -18.230690 14.175743 -22.389149
LeftToeBase 17.192912 -0.000000 -0.000000
RightUpLeg 3.627851 -12.179457 2.741054
RightLeg 8.672245 -0.000000 -0.000000
RightFoot -19.365335 -18.309319 17.066908
RightToeBase 11.009151 -0.000000 -0.000000
3
root 3.796863 32.282230 -4.811650 -3.419683 10.419303 2.019675
Spine 4.361329 4.681846 -0.363572
Head -0.216078 -9.456707 1.211031
LeftShoulder -15.085878 1.678937 29.593272
LeftArm -3.457452 -2.431141 -90.979493
LeftForeArm -7.330626 0.000000 122.163593
LeftHand 7.794965 -0.000000 19.234989
LeftHandThumb1 -26.253704 0.000000 33.147579
RightShoulder -19.055833 -17.856472 -24.571858
RightArm 17.915085 -35.403159 89.822706
RightForeArm -14.714952 -0.000000 27.030617
RightHand 15.694859 -0.000000 4.100490
RightHandThumb1 -24.326973 -0.000000 -32.862282
LeftUpLeg 4.539172 -1.850540 -5.616299
LeftLeg 5.616547 -0.000000 -0.000000
LeftFoot -17.986016 14.105258 -22.087555
LeftToeBase 17.606375 -0.000000 -0.000000
RightUpLeg 3.365751 -12.217359 2.632685
RightLeg 9.252321 -0.000000 -0.000000
RightFoot -19.662948 -18.280771 17.313405
RightToeBase 11.142152 -0.000000 -0.000000
4
root 3.840375 32.279166 -4.818949 -3.431319 10.583556 2.077899
Spine 4.371758 4.671718 -0.435135
Head -0.002621 -9.656995 1.255038
LeftShoulder -15.112221 1.721315 29.614949
LeftArm -3.510035 -2.664883 -90.936266
LeftForeArm -7.167779 0.000000 122.142296
LeftHand 7.638103 0.000000 19.323318
LeftHandThumb1 -26.253704 0.000000 33.147579
RightShoulder -19.057607 -17.802663 -24.570301
RightArm 17.775708 -35.345868 89.966921
RightForeArm -14.855362 0.000000 26.762999
RightHand 15.686559 -0.000000 4.024607
RightHandThumb1 -24.326973 -0.000000 -32.862282
LeftUpLeg 4.626047 -1.828390 -5.729488
LeftLeg 5.463831 -0.000000 -0.000000
LeftFoot -18.071712 13.876131 -22.427051
LeftToeBase 18.406972 -0.000000 -0.000000
RightUpLeg 3.027700 -12.389894 2.493342
RightLeg 10.008632 -0.000000 -0.000000
RightFoot -19.990636 -18.229646 17.393621
RightToeBase 11.424845 -0.000000 -0.000000
5
root 3.891527 32.274543 -4.827630 -3.436682 10.778368 2.157279
Spine 4.381054 4.659125 -0.494199
Head 0.229893 -9.834159 1.202857
LeftShoulder -15.093675 1.708912 29.632115
LeftArm -3.631578 -2.917305 -90.853705
LeftForeArm -6.857634 -0.000000 122.092279
LeftHand 7.589867 -0.000000 19.288943
LeftHandThumb1 -26.253704 0.000000 33.147579
RightShoulder -19.128757 -18.005699 -24.504879
RightArm 17.965929 -35.340921 89.892147
RightForeArm -14.824564 0.000000 26.514634
RightHand 15.731075 -0.000000 4.120413
RightHandThumb1 -24.326973 -0.000000 -32.862282
LeftUpLeg 4.705306 -1.905139 -5.890468
LeftLeg 5.327907 -0.000000 -0.000000
LeftFoot -18.031112 13.770967 -22.509755
LeftToeBase 18.555638 -0.000000 -0.000000
RightUpLeg 2.676028 -12.674953 2.295811
RightLeg 10.813341 -0.000000 -0.000000
RightFoot -20.313028 -18.065674 17.478878
RightToeBase 11.432497 -0.000000 -0.000000
6
root 3.943123 32.270319 -4.831326 -3.499870 11.028980 2.209684
Spine 4.432814 4.572926 -0.536574
Head 0.503214 -9.953116 1.144067
LeftShoulder -15.090531 1.877851 29.601621
LeftArm -3.543781 -3.109075 -90.860746
LeftForeArm -6.767775 -0.000000 122.114968
LeftHand 7.316767 0.000000 19.323316
LeftHandThumb1 -26.253704 0.000000 33.147579
RightShoulder -19.099388 -17.854932 -24.576506
RightArm 17.665086 -35.258368 90.129289
RightForeArm -14.803263 -0.000000 26.249970
RightHand 15.708653 -0.000000 4.087991
RightHandThumb1 -24.326973 -0.000000 -32.862282
LeftUpLeg 4.819078 -1.968297 -6.029531
LeftLeg 5.253871 -0.000000 -0.000000
LeftFoot -17.863862 13.622534 -22.250317
LeftToeBase 18.030261 -0.000000 -0.000000
RightUpLeg 2.456789 -12.377344 2.187401
RightLeg 11.479822 -0.000000 -0.000000
RightFoot -20.800569 -18.378075 17.942827
RightToeBase 11.457633 -0.000000 -0.000000
7
root 3.987744 32.265813 -4.840927 -3.530744 11.232243 2.272281
Spine 4.471802 4.517332 -0.603615
Head 0.725176 -10.127986 1.125523
LeftShoulder -15.080471 1.791040 29.644110
LeftArm -3.716791 -3.332652 -90.811919
LeftForeArm -6.561806 0.000000 122.085932
LeftHand 7.239627 -0.000000 19.606318
LeftHandThumb1 -26.253704 0.000000 33.147579
RightShoulder -19.084940 -17.926787 -24.549420
RightArm 17.659450 -35.110191 90.213275
RightForeArm -14.932779 -0.000000 26.045680
RightHand 15.598941 -0.000000 4.257779
RightHandThumb1 -24.326973 -0.000000 -32.862282
LeftUpLeg 4.989254 -2.603033 -6.236568
LeftLeg 4.998175 -0.000000 -0.000000
LeftFoot -17.922366 14.157974 -22.376986
LeftToeBase 17.579848 -0.000000 -0.000000
RightUpLeg 2.199221 -12.274661 2.058351
RightLeg 12.130642 -0.000000 -0.000000
RightFoot -21.197554 -18.493259 18.304624
RightToeBase 11.503128 -0.000000 -0.000000
8
root 4.035057 32.259686 -4.856151 -3.527569 11.435504 2.350882
Spine 4.491177 4.481553 -0.677222
Head 0.938188 -10.295335 1.059728
LeftShoulder -15.062548 1.727474 29.679928
LeftArm -3.846072 -3.534708 -90.773782
LeftForeArm -6.297872 -0.000000 122.050008
LeftHand 7.152191 -0.000000 19.796447
LeftHandThumb1 -26.253704 0.000000 33.147579
RightShoulder -19.094971 -17.984650 -24.541091
RightArm 17.617060 -34.985711 90.328778
RightForeArm -14.950665 0.000000 25.839506
RightHand 15.593779 -0.000000 4.346107
RightHandThumb1 -24.326973 -0.000000 -32.862282
LeftUpLeg 5.072472 -3.063845 -6.446527
LeftLeg 4.827349 -0.000000 -0.000000
LeftFoot -17.962447 14.430699 -22.475794
LeftToeBase 17.560854 -0.000000 -0.000000
RightUpLeg 1.883805 -12.309079 1.885527
RightLeg 12.832962 -0.000000 -0.000000
RightFoot -21.574836 -18.396230 18.652404
RightToeBase 11.782482 -0.000000 -0.000000
9
root 4.086395 32.253779 -4.869643 -3.521716 11.637751 2.426045
Spine 4.525504 4.113246 -0.659123
Head 1.126416 -10.101646 0.692932
LeftShoulder -15.354348 1.850796 29.505814
LeftArm -3.905115 -3.753879 -90.596881
LeftForeArm -6.201829 0.000000 122.011200
LeftHand 7.089320 -0.000000 19.604727
LeftHandThumb1 -26.253704 0.000000 33.147579
RightShoulder -18.819213 -17.719013 -24.842710
RightArm 17.322714 -34.936015 90.657346
RightForeArm -14.908304 0.000000 25.617872
RightHand 15.723680 -0.000000 4.275806
RightHandThumb1 -24.326973 -0.000000 -32.862282
LeftUpLeg 5.157559 -3.314858 -6.635921
LeftLeg 4.643808 -0.000000 -0.000000
LeftFoot -17.875547 14.547852 -22.408429
LeftToeBase 17.477239 -0.000000 -0.000000
RightUpLeg 1.557342 -12.436669 1.700709
RightLeg 13.541469 -0.000000 -0.000000
RightFoot -21.895924 -18.369361 18.785427
RightToeBase 11.485287 -0.000000 -0.000000
10
root 4.127950 32.246265 -4.876033 -3.566401 11.804644 2.498421
Spine 4.582099 4.091425 -0.745854
Head 1.321719 -10.299923 0.669810
LeftShoulder -15.364905 1.836216 29.522549
LeftArm -3.972911 -3.926244 -90.516253
LeftForeArm -5.960989 -0.000000 121.977561
LeftHand 7.019613 -0.000000 19.805347
LeftHandThumb1 -26.253704 0.000000 33.147579
RightShoulder -18.814631 -17.849664 -24.784311
RightArm 17.398359 -34.877077 90.650558
RightForeArm -14.801056 -0.000000 25.437186
RightHand 15.636678 0.000000 4.314574
RightHandThumb1 -24.326973 -0.000000 -32.862282
LeftUpLeg 5.189295 -3.507593 -6.793637
LeftLeg 4.677396 -0.000000 -0.000000
LeftFoot -17.952321 14.378022 -22.800847
LeftToeBase 17.649947 -0.000000 -0.000000
RightUpLeg 1.273135 -12.446705 1.546878
RightLeg 14.283547 -0.000000 -0.000000
RightFoot -22.225853 -18.365928 19.028373
RightToeBase 11.213954 -0.000000 -0.000000
11
root 4.177579 32.238540 -4.885923 -3.596571 11.988549 2.600734
Spine 4.614676 4.252766 -0.887060
Head 1.571317 -10.651862 0.751870
LeftShoulder -15.194414 1.827030 29.613847
LeftArm -3.966251 -4.075895 -90.552509
LeftForeArm -5.690853 -0.000000 121.948800
LeftHand 6.860915 -0.000000 19.818386
LeftHandThumb1 -26.253704 0.000000 33.147579
RightShoulder -18.938496 -17.887957 -24.689499
RightArm 17.235146 -34.762989 90.755458
RightForeArm -14.762164 0.000000 25.268158
RightHand 15.616013 -0.000000 4.234955
RightHandThumb1 -24.326973 -0.000000 -32.862282
LeftUpLeg 5.209416 -3.608418 -6.991345
LeftLeg 4.721506 -0.000000 -0.000000
LeftFoot -17.906485 14.359076 -22.713460
LeftToeBase 17.432653 -0.000000 -0.000000
RightUpLeg 0.935729 -12.531604 1.343725
RightLeg 15.111215 -0.000000 -0.000000
RightFoot -22.532366 -18.326351 19.194626
RightToeBase 11.063798 -0.000000 -0.000000
